Coordinates
version=1
nRows=14
nColumns=24
inDegrees=yes

Units are S.I. units (second, meters, Newtons, ...)
Angles are in degrees.

endheader
time	pelvis_tilt	pelvis_list	pelvis_rotation	pelvis_tx	pelvis_ty	pelvis_tz	hip_flexion_r	hip_adduction_r	hip_rotation_r	knee_angle_r	ankle_angle_r	subtalar_angle_r	mtp_angle_r	hip_flexion_l	hip_adduction_l	hip_rotation_l	knee_angle_l	ankle_angle_l	subtalar_angle_l	mtp_angle_l	lumbar_extension	lumbar_bending	lumbar_rotation
      0.73300000	     -2.33831116	      6.74624208	     12.56185133	      0.04424116	      0.97843614	      0.23377549	     29.26877994	     -9.57135132	    -10.02212892	     -2.95012853	     10.03562265	     -8.06389978	      8.74858175	    -21.54833438	      6.66348711	     14.74080113	     -4.44433304	      7.20739054	    -11.05666531	     11.79249430	     -1.39268831	     -7.97527878	     -3.95988208
      0.73716667	     -2.34788139	      6.71826047	     12.68517911	      0.05039881	      0.97791360	      0.23384668	     29.27124901	     -9.57652455	     -9.98258981	     -3.41529012	     10.11404386	     -8.32673170	      8.72974062	    -21.72444544	      6.51794895	     14.74522808	     -4.73288161	      6.96896140	    -10.97057301	     11.81612832	     -1.33972888	     -7.92355286	     -4.01753259
      0.74133333	     -2.37801827	      6.67524240	     12.79156816	      0.05660121	      0.97737015	      0.23397873	     29.27507952	     -9.54839066	     -9.81773835	     -3.85384936	     10.03860348	     -8.77399504	      8.68566300	    -21.85149900	      6.36716868	     14.68176251	     -5.06959883	      6.76623580	    -10.79396026	     11.91987061	     -1.27301065	     -7.85936907	     -4.19385832
      0.74550000	     -2.38092820	      6.61630240	     12.91361666	      0.06286113	      0.97690641	      0.23406572	     29.25596273	     -9.51488022	     -9.81620510	     -4.34663443	     10.00615623	     -8.96769566	      8.67872841	    -22.00395013	      6.19082585	     14.67926209	     -5.40420953	      6.50621074	    -10.72656914	     11.94246267	     -1.23460100	     -7.77173289	     -4.21275512
      0.74966667	     -2.40049539	      6.54873142	     13.00868936	      0.06919963	      0.97643123	      0.23424154	     29.21198977	     -9.43975717	     -9.61344804	     -4.75928630	      9.80540155	     -9.50525636	      8.65827532	    -22.10674239	      6.01357023	     14.52969384	     -5.79496549	      6.27563099	    -10.45647746	     12.14551641	     -1.13525050	     -7.67655488	     -4.39020100
      0.75383333	     -2.40655780	      6.47345268	     13.11135169	      0.07559678	      0.97601620	      0.23435991	     29.17028508	     -9.36949019	     -9.57116534	     -5.23956503	      9.66727791	     -9.74290069	      8.65726675	    -22.23074844	      5.82644416	     14.45230865	     -6.16160204	      5.92388666	    -10.32090547	     12.25036881	     -1.04456688	     -7.56907281	     -4.43161301
      0.75800000	     -2.43001096	      6.36903444	     13.19422290	      0.08203184	      0.97559276	      0.23455266	     29.13093656	     -9.24824472	     -9.41758982	     -5.68124617	      9.36688708	    -10.15610514	      8.67167462	    -22.29929001	      5.62060409	     14.30592020	     -6.58837340	      5.63133036	    -10.09125424	     12.47985086	     -0.95999414	     -7.42700391	     -4.53787631
      0.76216667	     -2.44014364	      6.26169371	     13.26981221	      0.08851076	      0.97521359	      0.23475302	     29.07789301	     -9.11577913	     -9.29515970	     -6.13656315	      9.01921272	    -10.61809599	      8.72308552	    -22.35232243	      5.41391470	     14.10042371	     -7.07451031	      5.39085699	     -9.83444421	     12.89841056	     -0.84729883	     -7.28591047	     -4.61417674
      0.76633333	     -2.46418548	      6.13215509	     13.33950499	      0.09504533	      0.97485524	      0.23495569	     29.03564983	     -8.95839580	     -9.18145086	     -6.59125236	      8.63859246	    -11.02582515	      8.83953848	    -22.36900212	      5.19214591	     13.86967255	     -7.58409317	      5.06772066	     -9.57067362	     13.59141380	     -0.71639762	     -7.12029373	     -4.67349362
      0.77050000	     -2.45732018	      6.02709102	     13.40518447	      0.10159513	      0.97458988	      0.23512036	     28.98690762	     -8.83346766	     -9.20081346	     -7.12272162	      8.33093601	    -11.11521897	      8.86177704	    -22.44149746	      4.99531264	     13.76464853	     -8.04709109	      4.58458175	     -9.51127577	     13.71670027	     -0.62094630	     -6.97125427	     -4.68592726
      0.77466667	     -2.51911152	      5.87479903	     13.44783463	      0.10818637	      0.97422192	      0.23537864	     29.01320305	     -8.64919739	     -9.12363778	     -7.63064822	      7.86525100	    -11.43122714	     10.43159387	    -22.33754428	      4.76855487	     13.35754911	     -8.68518928	      4.22577753	     -9.11580781	     20.91581303	     -0.45030384	     -6.79813225	     -4.70685940
      0.77883333	     -2.50655993	      5.70701917	     13.47895266	      0.11483947	      0.97403392	      0.23561792	     28.93161757	     -8.42370054	     -9.01912686	     -8.09300412	      7.38065841	    -11.85994126	     10.42713494	    -22.36418588	      4.52254022	     13.17760933	     -9.21339099	      3.71951039	     -9.05877652	     20.98821139	     -0.33798688	     -6.56740844	     -4.75564934
      0.78300000	     -2.54167466	      5.53597122	     13.49463169	      0.12150067	      0.97380238	      0.23587800	     28.93157507	     -8.20316169	     -8.94466055	     -8.61534540	      6.90789738	    -12.16229430	     10.44179305	    -22.28209766	      4.29315627	     12.87592923	     -9.85381539	      3.26530433	     -8.82575651	     21.12208537	     -0.16444094	     -6.34926180	     -4.76003721
      0.78716667	     -2.56974750	      5.35629484	     13.49455368	      0.12817535	      0.97361737	      0.23616017	     28.93274255	     -7.96688562	     -8.87079190	     -9.15371222	      6.42574657	    -12.44298932	     10.47394938	    -22.17544366	      4.05983684	     12.52675562	    -10.54453213	      2.78887238	     -8.55278263	     21.33018023	      0.00213054	     -6.12289714	     -4.74972536
